# xmcd
#
# Track frame offsets:
#	150
#	13310
#	26710
#	41340
#	52502
#	62835
#	77735
#	92252
#	101885
#	119945
#	130447
#	143385
#	157625
#	172505
#	185137
#	196025
#	211082
#	230637
#	243360
#
# Disc length: 3395
#
# Revision: 3
# Processed by: cddbd v1.5.1PL0 Copyright (c) Steve Scherf et al.
# Submitted via: audiograbber 1.83.01
# Normalized: r2:DSETVAR1
#
DISCID=f00d4113
DTITLE=Various Artist - 100% Country (1-2)
DYEAR=1900
DGENRE=Country - Int.
TTITLE0=Ray Charles - Crying Time
TTITLE1=Lynn Anderson - Rose Garden
TTITLE2=Don Gibson - I Can't Stop Loving You
TTITLE3=Pat Boone - April Love
TTITLE4=Buck Owens - Rollin' In My Sweet Baby's Arms
TTITLE5=B.j. Thomas - Another Somebody Done Somebody Wrong Song
TTITLE6=Glen Campbell - Rhinestone Cowbow
TTITLE7=Dale and Grace - I'm Leaving It All Up To You
TTITLE8=Ricky Nelson - Garden Party
TTITLE9=The Everly Brothers - All I Have To Do Is Dream
TTITLE10=Kenny Rogers - Ruby, Don't Take Your Love To Town
TTITLE11=George Jones - Good Year For The Roses
TTITLE12=Anne Murray - Both Sides Now
TTITLE13=Willie Nelson - Any Old Arms Won't Do
TTITLE14=Kris Kristofferson - Jesus Was A Capricorn
TTITLE15=The Bellamy Brothers - On A Summer Night
TTITLE16=Timi Yuro - Crazy
TTITLE17=Olivia Newton-John - I Never Knew Love
TTITLE18=Patsy Cline - Walking After Midnight
EXTD=
EXTT0=Ray Charles\n
EXTT1=Lynn Anderson\n
EXTT2=Don Gibson\n
EXTT3=Pat Boone\n
EXTT4=Buck Owens\n
EXTT5=B.J. Thomas\n
EXTT6=Glen Cambell\n
EXTT7=Dale and Grace\n
EXTT8=Ricky Nelson\n
EXTT9=The Everly Brothers\n
EXTT10=Kenny Rogers
EXTT11=George Jones
EXTT12=Anne Murray
EXTT13=Willie Nelson
EXTT14=Kris Kristofferson
EXTT15=The Bellamy Brothers
EXTT16=Timi Yuro
EXTT17=Olivia Newton John
EXTT18=Patsy Cline
PLAYORDER=
